<?xml version="1.0" encoding="UTF-8" standalone="no"?>
<!DOCTYPE svg PUBLIC "-//W3C//DTD SVG 1.1//EN" "http://www.w3.org/Graphics/SVG/1.1/DTD/svg11.dtd">
<svg width="100%" height="100%" viewBox="0 0 140 50" version="1.1" xmlns="http://www.w3.org/2000/svg" xmlns:xlink="http://www.w3.org/1999/xlink" xml:space="preserve" xmlns:serif="http://www.serif.com/" style="fill-rule:evenodd;clip-rule:evenodd;stroke-linejoin:round;stroke-miterlimit:1.41421;">
    <g transform="matrix(0.6,0,0,0.6,10,10)">
        <circle cx="25" cy="25" r="25" style="fill:rgb(197,204,213);"/>
    </g>
    <g transform="matrix(2.63305,0,0,2.63305,-56.7385,-33.6182)">
        <path d="M41.208,25.187L45.661,25.187L45.661,24.042L42.486,24.042L42.486,22.814L45.243,22.814L45.243,21.669L42.486,21.669L42.486,20.483L45.619,20.483L45.619,19.338L41.208,19.338L41.208,25.187Z" style="fill:rgb(197,204,213);fill-rule:nonzero;"/>
        <path d="M46.806,25.187L49.087,25.187C50.925,25.187 52.195,23.908 52.195,22.262L52.195,22.246C52.195,20.6 50.925,19.338 49.087,19.338L46.806,19.338L46.806,25.187ZM48.093,24.025L48.093,20.499L49.087,20.499C50.14,20.499 50.85,21.226 50.85,22.262L50.85,22.279C50.85,23.315 50.14,24.025 49.087,24.025L48.093,24.025Z" style="fill:rgb(197,204,213);fill-rule:nonzero;"/>
        <rect x="53.398" y="19.338" width="1.287" height="5.849" style="fill:rgb(197,204,213);fill-rule:nonzero;"/>
        <path d="M57.509,25.187L58.796,25.187L58.796,20.525L60.575,20.525L60.575,19.338L55.729,19.338L55.729,20.525L57.509,20.525L57.509,25.187Z" style="fill:rgb(197,204,213);fill-rule:nonzero;"/>
        <path d="M61.561,25.187L66.015,25.187L66.015,24.042L62.84,24.042L62.84,22.814L65.597,22.814L65.597,21.669L62.84,21.669L62.84,20.483L65.973,20.483L65.973,19.338L61.561,19.338L61.561,25.187Z" style="fill:rgb(197,204,213);fill-rule:nonzero;"/>
        <path d="M67.159,25.187L69.44,25.187C71.279,25.187 72.549,23.908 72.549,22.262L72.549,22.246C72.549,20.6 71.279,19.338 69.44,19.338L67.159,19.338L67.159,25.187ZM68.446,24.025L68.446,20.499L69.44,20.499C70.493,20.499 71.203,21.226 71.203,22.262L71.203,22.279C71.203,23.315 70.493,24.025 69.44,24.025L68.446,24.025Z" style="fill:rgb(197,204,213);fill-rule:nonzero;"/>
    </g>
    <g transform="matrix(1,0,0,1,-1.37035,0.666099)">
        <path d="M27.95,32.034L24.791,32.034L24.791,28.875L27.95,28.875L27.95,32.034ZM27.95,25.717L24.791,25.717L24.791,16.241L27.95,16.241L27.95,25.717Z" style="fill:white;"/>
    </g>
</svg>
