<?xml version="1.0" encoding="UTF-8" standalone="no"?>
<!DOCTYPE svg PUBLIC "-//W3C//DTD SVG 1.1//EN" "http://www.w3.org/Graphics/SVG/1.1/DTD/svg11.dtd">
<svg width="100%" height="100%" viewBox="0 0 300 50" version="1.1" xmlns="http://www.w3.org/2000/svg" xmlns:xlink="http://www.w3.org/1999/xlink" xml:space="preserve" xmlns:serif="http://www.serif.com/" style="fill-rule:evenodd;clip-rule:evenodd;stroke-linejoin:round;stroke-miterlimit:1.41421;">
    <g transform="matrix(0.6,0,0,0.6,10,10)">
        <circle cx="25" cy="25" r="25" style="fill:rgb(197,204,213);"/>
    </g>
    <g transform="matrix(2.63305,0,0,2.63305,-56.7385,-33.6182)">
        <path d="M41.208,25.187L45.661,25.187L45.661,24.042L42.486,24.042L42.486,22.814L45.243,22.814L45.243,21.669L42.486,21.669L42.486,20.483L45.619,20.483L45.619,19.338L41.208,19.338L41.208,25.187Z" style="fill:rgb(197,204,213);fill-rule:nonzero;"/>
    </g>
    <g transform="matrix(2.63305,0,0,2.63305,-56.7385,-33.6182)">
        <path d="M46.806,25.187L49.087,25.187C50.925,25.187 52.195,23.908 52.195,22.262L52.195,22.246C52.195,20.6 50.925,19.338 49.087,19.338L46.806,19.338L46.806,25.187ZM48.093,24.025L48.093,20.499L49.087,20.499C50.14,20.499 50.85,21.226 50.85,22.262L50.85,22.279C50.85,23.315 50.14,24.025 49.087,24.025L48.093,24.025Z" style="fill:rgb(197,204,213);fill-rule:nonzero;"/>
    </g>
    <g transform="matrix(2.63305,0,0,2.63305,-56.7385,-33.6182)">
        <rect x="53.398" y="19.338" width="1.287" height="5.849" style="fill:rgb(197,204,213);fill-rule:nonzero;"/>
    </g>
    <g transform="matrix(2.63305,0,0,2.63305,-56.7385,-33.6182)">
        <path d="M57.509,25.187L58.796,25.187L58.796,20.525L60.575,20.525L60.575,19.338L55.729,19.338L55.729,20.525L57.509,20.525L57.509,25.187Z" style="fill:rgb(197,204,213);fill-rule:nonzero;"/>
    </g>
    <g transform="matrix(2.63305,0,0,2.63305,-56.7385,-33.6182)">
        <path d="M61.561,25.187L66.015,25.187L66.015,24.042L62.84,24.042L62.84,22.814L65.597,22.814L65.597,21.669L62.84,21.669L62.84,20.483L65.973,20.483L65.973,19.338L61.561,19.338L61.561,25.187Z" style="fill:rgb(197,204,213);fill-rule:nonzero;"/>
    </g>
    <g transform="matrix(2.63305,0,0,2.63305,-56.7385,-33.6182)">
        <path d="M67.159,25.187L69.44,25.187C71.279,25.187 72.549,23.908 72.549,22.262L72.549,22.246C72.549,20.6 71.279,19.338 69.44,19.338L67.159,19.338L67.159,25.187ZM68.446,24.025L68.446,20.499L69.44,20.499C70.493,20.499 71.203,21.226 71.203,22.262L71.203,22.279C71.203,23.315 70.493,24.025 69.44,24.025L68.446,24.025Z" style="fill:rgb(197,204,213);fill-rule:nonzero;"/>
    </g>
    <g transform="matrix(2.63305,0,0,2.63305,-56.7385,-33.6182)">
        <path d="M83.294,25.27C84.555,25.27 85.441,24.619 85.441,23.457L85.441,23.441C85.441,22.421 84.772,21.995 83.586,21.686C82.575,21.427 82.324,21.302 82.324,20.917L82.324,20.901C82.324,20.616 82.583,20.391 83.076,20.391C83.569,20.391 84.079,20.608 84.597,20.967L85.265,19.998C84.672,19.522 83.945,19.255 83.093,19.255C81.898,19.255 81.046,19.956 81.046,21.017L81.046,21.034C81.046,22.196 81.806,22.521 82.984,22.822C83.962,23.073 84.162,23.24 84.162,23.566L84.162,23.583C84.162,23.925 83.845,24.134 83.319,24.134C82.65,24.134 82.099,23.858 81.572,23.424L80.812,24.335C81.514,24.961 82.408,25.27 83.294,25.27Z" style="fill:rgb(51,53,56);fill-rule:nonzero;"/>
    </g>
    <g transform="matrix(2.63305,0,0,2.63305,-56.7385,-33.6182)">
        <path d="M85.934,25.187L87.246,25.187L87.78,23.875L90.253,23.875L90.788,25.187L92.133,25.187L89.627,19.296L88.44,19.296L85.934,25.187ZM88.24,22.739L89.017,20.842L89.794,22.739L88.24,22.739Z" style="fill:rgb(51,53,56);fill-rule:nonzero;"/>
    </g>
    <g transform="matrix(2.63305,0,0,2.63305,-56.7385,-33.6182)">
        <path d="M94.064,25.229L95.2,25.229L97.564,19.338L96.177,19.338L94.648,23.457L93.119,19.338L91.699,19.338L94.064,25.229Z" style="fill:rgb(51,53,56);fill-rule:nonzero;"/>
    </g>
    <g transform="matrix(2.63305,0,0,2.63305,-56.7385,-33.6182)">
        <path d="M98.467,25.187L102.92,25.187L102.92,24.042L99.745,24.042L99.745,22.814L102.502,22.814L102.502,21.669L99.745,21.669L99.745,20.483L102.878,20.483L102.878,19.338L98.467,19.338L98.467,25.187Z" style="fill:rgb(51,53,56);fill-rule:nonzero;"/>
    </g>
    <g transform="matrix(2.63305,0,0,2.63305,-56.7385,-33.6182)">
        <path d="M106.571,25.187L107.841,25.187L107.841,21.469L110.674,25.187L111.768,25.187L111.768,19.338L110.498,19.338L110.498,22.939L107.758,19.338L106.571,19.338L106.571,25.187Z" style="fill:rgb(51,53,56);fill-rule:nonzero;"/>
    </g>
    <g transform="matrix(2.63305,0,0,2.63305,-56.7385,-33.6182)">
        <path d="M116.013,25.287C117.818,25.287 119.129,23.925 119.129,22.262L119.129,22.246C119.129,20.583 117.834,19.238 116.03,19.238C114.225,19.238 112.913,20.6 112.913,22.262L112.913,22.279C112.913,23.942 114.208,25.287 116.013,25.287ZM116.03,24.101C114.994,24.101 114.258,23.265 114.258,22.262L114.258,22.246C114.258,21.243 114.977,20.424 116.013,20.424C117.049,20.424 117.784,21.26 117.784,22.262L117.784,22.279C117.784,23.282 117.066,24.101 116.03,24.101Z" style="fill:rgb(51,53,56);fill-rule:nonzero;"/>
    </g>
    <g transform="matrix(2.63305,0,0,2.63305,-56.7385,-33.6182)">
        <path d="M121.486,25.229L122.605,25.229L123.925,21.402L125.246,25.229L126.365,25.229L128.362,19.338L127.017,19.338L125.805,23.298L124.494,19.321L123.391,19.321L122.079,23.298L120.867,19.338L119.489,19.338L121.486,25.229Z" style="fill:rgb(51,53,56);fill-rule:nonzero;"/>
    </g>
    <g transform="matrix(1,0,0,1,-1.37035,0.666099)">
        <path d="M27.95,32.034L24.791,32.034L24.791,28.875L27.95,28.875L27.95,32.034ZM27.95,25.717L24.791,25.717L24.791,16.241L27.95,16.241L27.95,25.717Z" style="fill:white;"/>
    </g>
</svg>
