<?xml version="1.0" encoding="UTF-8" standalone="no"?>
<!DOCTYPE svg PUBLIC "-//W3C//DTD SVG 1.1//EN" "http://www.w3.org/Graphics/SVG/1.1/DTD/svg11.dtd">
<svg width="100%" height="100%" viewBox="0 0 140 50" version="1.1" xmlns="http://www.w3.org/2000/svg" xmlns:xlink="http://www.w3.org/1999/xlink" xml:space="preserve" xmlns:serif="http://www.serif.com/" style="fill-rule:evenodd;clip-rule:evenodd;stroke-linejoin:round;stroke-miterlimit:1.41421;">
    <g transform="matrix(0.6,0,0,0.6,10,10)">
        <circle cx="25" cy="25" r="25" style="fill:rgb(0,179,100);"/>
    </g>
    <g transform="matrix(0.6,0,0,0.6,7.55763,10.7168)">
        <path d="M25,28.722L39.89,13.833L43.612,17.555L25,36.167L13.833,25L17.555,21.278L25,28.722Z" style="fill:white;"/>
    </g>
    <g transform="matrix(2.63305,0,0,2.63305,-54.9423,-33.6182)">
        <path d="M43.288,25.27C44.55,25.27 45.436,24.619 45.436,23.457L45.436,23.441C45.436,22.421 44.767,21.995 43.581,21.686C42.57,21.427 42.319,21.302 42.319,20.917L42.319,20.901C42.319,20.616 42.578,20.391 43.071,20.391C43.564,20.391 44.074,20.608 44.592,20.967L45.26,19.998C44.667,19.522 43.94,19.255 43.088,19.255C41.893,19.255 41.041,19.956 41.041,21.017L41.041,21.034C41.041,22.196 41.801,22.521 42.979,22.822C43.957,23.073 44.157,23.24 44.157,23.566L44.157,23.583C44.157,23.925 43.84,24.134 43.313,24.134C42.645,24.134 42.093,23.858 41.567,23.424L40.807,24.335C41.509,24.961 42.403,25.27 43.288,25.27Z" style="fill:rgb(0,179,100);fill-rule:nonzero;"/>
        <path d="M45.929,25.187L47.24,25.187L47.775,23.875L50.248,23.875L50.783,25.187L52.128,25.187L49.622,19.296L48.435,19.296L45.929,25.187ZM48.235,22.739L49.012,20.842L49.789,22.739L48.235,22.739Z" style="fill:rgb(0,179,100);fill-rule:nonzero;"/>
        <path d="M54.058,25.229L55.195,25.229L57.559,19.338L56.172,19.338L54.643,23.457L53.114,19.338L51.694,19.338L54.058,25.229Z" style="fill:rgb(0,179,100);fill-rule:nonzero;"/>
        <path d="M58.462,25.187L62.915,25.187L62.915,24.042L59.74,24.042L59.74,22.814L62.497,22.814L62.497,21.669L59.74,21.669L59.74,20.483L62.873,20.483L62.873,19.338L58.462,19.338L58.462,25.187Z" style="fill:rgb(0,179,100);fill-rule:nonzero;"/>
        <path d="M64.06,25.187L66.341,25.187C68.179,25.187 69.449,23.908 69.449,22.262L69.449,22.246C69.449,20.6 68.179,19.338 66.341,19.338L64.06,19.338L64.06,25.187ZM65.346,24.025L65.346,20.499L66.341,20.499C67.393,20.499 68.104,21.226 68.104,22.262L68.104,22.279C68.104,23.315 67.393,24.025 66.341,24.025L65.346,24.025Z" style="fill:rgb(0,179,100);fill-rule:nonzero;"/>
    </g>
</svg>
